<?xml version="1.0" encoding="utf-8"?>
<!-- Generator: Adobe Illustrator 22.1.0, SVG Export Plug-In . SVG Version: 6.00 Build 0)  -->
<svg version="1.1" id="Layer_1" xmlns="http://www.w3.org/2000/svg" xmlns:xlink="http://www.w3.org/1999/xlink" x="0px" y="0px"
	 viewBox="0 0 100 100" style="enable-background:new 0 0 100 100;" xml:space="preserve">
<style type="text/css">
	.st0{fill:#173956;}
	.st1{fill:#EF2700;}
	.st2{fill:#FFFFFF;}
	.st3{fill:#BA1600;}
	.st4{fill:url(#SVGID_1_);}
</style>
<g>
	<rect class="st0" width="100" height="100"/>
	<g>
		<path class="st1" d="M60.3,63.6H39.7c-1.8,0-3.2-1.4-3.2-3.2V39.8c0-1.8,1.4-3.2,3.2-3.2h20.6c1.8,0,3.2,1.4,3.2,3.2v20.6
			C63.5,62.1,62.1,63.6,60.3,63.6z"/>
		<g>
			<path class="st2" d="M91.8,37c0,0,1.4,0.7,1.5,2L81,61.9L68.7,49.2L91.8,37z"/>
			<g>
				<path class="st2" d="M90.7,36.6c0.1,0,0.2,0.1,0.3,0.1C90.9,36.7,90.8,36.7,90.7,36.6z"/>
				<path class="st2" d="M90.2,36.6c0.1,0,0.3,0,0.4,0C90.4,36.6,90.3,36.6,90.2,36.6z"/>
				<path class="st2" d="M80.8,56.6l-1.7-1.7c1.8-2.1,2.8-4.1,1.4-5.5C82.6,51.6,82.5,54.3,80.8,56.6z"/>
				<path class="st2" d="M91.1,36.7c0.3,0.1,0.5,0.2,0.7,0.3C91.6,36.8,91.3,36.8,91.1,36.7z"/>
				<path class="st1" d="M93.4,39.4L93.4,39.4c0-0.2-0.1-0.3-0.1-0.5l-9.5,9.5l0.5,0.5l-1.3,1.3c1.2,2.4,0.7,5.4-1.1,7.4l0.3,0.3
					l-1.6,1.6l-9.6-9.6l1.6-1.6l0.3,0.3c2-1.9,5.1-2.3,7.4-1.1l1.3-1.3l0.5,0.5l9.8-9.8l0,0l0,0c-0.2-0.1-0.5-0.2-0.7-0.3H91
					c-0.1,0-0.2-0.1-0.3-0.1c-0.1,0-0.1,0-0.1,0c-0.1,0-0.3,0-0.4,0l0,0l0,0H69.5c-1.8,0-3.2,1.4-3.2,3.2v20.6
					c0,1.8,1.4,3.2,3.2,3.2h20.6l0,0c1.2,0,2.3-0.7,2.8-1.7c0.2-0.5,0.4-1,0.4-1.6V39.8C93.4,39.7,93.4,39.5,93.4,39.4z"/>
				<path class="st1" d="M79.1,54.9l1.7,1.7c1.7-2.3,1.8-5.1-0.3-7.2C81.9,50.8,81,52.8,79.1,54.9z"/>
			</g>
		</g>
		<path class="st3" d="M93.3,39c0,0,0.1,0.5,0.1,0.9v20.6c0,0-0.2,3.2-3.2,3.2h-5.3l-4.3-4l1.6-1.6l-0.3-0.3c0,0,3.2-3.1,1.1-7.4
			l1.3-1.3l-0.5-0.5L93.3,39z"/>
		<g>
			<path class="st2" d="M49.4,52.2h-2c1.2-1.2,2.2-2.2,2.2-3.5c0-1.1-0.7-2.2-2.2-2.2c-0.7,0-1.4,0.2-2,0.7
				c-0.1,0.1-0.2,0.3-0.1,0.4l0.3,0.6c0.1,0.1,0.1,0.2,0.2,0.2c0.1,0,0.2,0,0.3-0.1c0.2-0.2,0.6-0.5,1.1-0.5c0.6,0,0.9,0.3,0.9,0.9
				c0,0.8-0.7,1.6-2.2,3l-0.7,0.7c-0.1,0.1-0.1,0.2-0.1,0.2v0.5c0,0.2,0.2,0.3,0.3,0.3h4c0.2,0,0.3-0.2,0.3-0.3v-0.7
				C49.7,52.4,49.5,52.2,49.4,52.2z"/>
			<path class="st2" d="M54.7,50.6h-0.5V47c0-0.2-0.2-0.3-0.3-0.3h-0.9c-0.1,0-0.2,0.1-0.3,0.2l-2.8,4c-0.1,0.1-0.1,0.1-0.1,0.2v0.6
				c0,0.2,0.2,0.3,0.3,0.3h2.6v1.4c0,0.2,0.2,0.3,0.3,0.3h0.8c0.2,0,0.3-0.2,0.3-0.3V52h0.5c0.2,0,0.3-0.2,0.3-0.3v-0.7
				C55,50.7,54.9,50.6,54.7,50.6z M51.7,50.6l1-1.5v1.5H51.7z"/>
			<g>
				<path class="st2" d="M41.9,50.5c-0.2,0-0.4-0.2-0.4-0.4c0-4.7,3.8-8.5,8.5-8.5c0.2,0,0.4,0.2,0.4,0.4s-0.2,0.4-0.4,0.4
					c-4.3,0-7.7,3.4-7.7,7.7C42.3,50.3,42.1,50.5,41.9,50.5z"/>
				<path class="st2" d="M50.1,58.6c-0.2,0-0.4-0.2-0.4-0.4c0-0.2,0.2-0.4,0.4-0.4c4.3,0,7.7-3.4,7.7-7.7c0-0.2,0.2-0.4,0.4-0.4
					c0.2,0,0.4,0.2,0.4,0.4C58.5,54.8,54.7,58.6,50.1,58.6z"/>
			</g>
			<g>
				<path class="st2" d="M49.4,43.7c-0.2,0-0.3-0.1-0.4-0.2c-0.2-0.2-0.2-0.6,0-0.9l0.7-0.7L49,41.3c-0.2-0.2-0.2-0.6,0-0.9
					c0.2-0.2,0.6-0.2,0.9,0l1.5,1.5l-1.5,1.5C49.6,43.7,49.5,43.7,49.4,43.7z"/>
				<path class="st2" d="M50.7,56.4c0.2,0,0.3,0.1,0.4,0.2c0.2,0.2,0.2,0.6,0,0.9l-0.7,0.7l0.7,0.7c0.2,0.2,0.2,0.6,0,0.9
					s-0.6,0.2-0.9,0L48.8,58l1.5-1.5C50.4,56.5,50.6,56.4,50.7,56.4z"/>
			</g>
		</g>
		<path class="st1" d="M60.6,33.5H40c-1.8,0-3.2-1.4-3.2-3.2V9.7c0-1.8,1.4-3.2,3.2-3.2h20.6c1.8,0,3.2,1.4,3.2,3.2v20.6
			C63.8,32.1,62.3,33.5,60.6,33.5z"/>
		<g>
			<path class="st2" d="M59.1,18.9L57,16.7v-4.5c0-0.6-0.5-1.1-1.1-1.1H55c-0.6,0-1.1,0.5-1.1,1.1v1.4L52.3,12
				c-0.5-0.6-1.3-0.9-2.1-0.9c-0.7,0-1.5,0.3-2.1,0.9l-6.8,6.9c-1.1,1.1-0.3,2.8,1,2.8h1.1V27c0,0.9,0.7,1.7,1.7,1.7h10.1
				c0.9,0,1.7-0.7,1.7-1.7v-5.3h1.1C59.4,21.7,60.3,20.1,59.1,18.9z M50.3,26.7c-2.3,0-4.1-1.8-4.1-4.1c0-1.3,0.6-2.5,1.6-3.2
				c0.2-0.2,0.3,0,0.3,0.1c-0.7,1.6-0.2,3.1,0.9,3.4c-0.3-0.8-0.5-1.7-0.4-2.6c0.2-1.3,0.8-2.5,1.8-3.3c0.1-0.1,0.2-0.1,0.2-0.1
				s0.1,0.1,0.1,0.2c-0.1,0.3-0.1,0.5-0.2,0.8C50.3,19,50.5,20,51,20.9c0.8,0,1.1-0.9,1.2-1.6c0-0.2,0.1-0.2,0.3-0.1
				c1,0.7,1.7,2,1.7,3.3C54.4,24.9,52.6,26.7,50.3,26.7z"/>
		</g>
		<path class="st3" d="M59.6,19.5l4.1,5.1v5.6c0,0-0.2,3.2-3.2,3.2H48.5l-4-4.9h10.7c0,0,1.7,0.1,1.7-1.7v-5.3h1.1
			C58.2,21.7,60.2,21.6,59.6,19.5z"/>
		<polygon class="st2" points="59,93.4 57.4,93.5 40.1,80.7 41.9,72.4 47.8,69.5 57,72.5 62.8,88.8 61.8,92 		"/>
		<g>
			<g>
				<g>
					<path class="st2" d="M61.8,66.9c0.3,0.2,0.5,0.3,0.7,0.6C62.3,67.2,62.1,67,61.8,66.9z"/>
					<path class="st2" d="M36.5,69.7L36.5,69.7c0-0.2,0-0.5,0.1-0.6C36.5,69.3,36.5,69.5,36.5,69.7z"/>
					<path class="st2" d="M37.5,67.5c0.2-0.2,0.5-0.4,0.7-0.6C37.9,67,37.7,67.2,37.5,67.5z"/>
					<path class="st2" d="M36.6,69c0.1-0.6,0.5-1.2,0.9-1.6C37,67.9,36.7,68.4,36.6,69z"/>
					<path class="st1" d="M62.6,67.5c-0.2-0.2-0.5-0.4-0.7-0.6c-0.5-0.2-1-0.4-1.6-0.4H39.8c-0.6,0-1.1,0.1-1.6,0.4
						c-0.3,0.2-0.5,0.3-0.7,0.6c-0.5,0.5-0.7,1-0.9,1.6c-0.1,0.2-0.1,0.4-0.1,0.6v20.6l0,0c0,1.2,0.7,2.3,1.7,2.8
						c0.5,0.2,1,0.4,1.6,0.4h17.6c-0.1-0.4-0.2-0.9-0.1-1.3c0.2-0.6,0.5-1.2,1.1-1.6l1.6-1c0.5-0.3,0.6-0.9,0.3-1.3S59.5,87.7,59,88
						l-1.6,1c-0.6,0.3-1.3,0.5-1.9,0.3s-1.2-0.5-1.6-1.1L52.5,86c-1,0.4-2,0.5-3.1,0.3c-1.3-0.3-2.4-1.1-3.2-2.2l-1.6-2.6l-0.3,0.2
						c-0.2,0.1-0.4,0.2-0.6,0.1c-0.2-0.1-0.3-0.2-0.5-0.3c-0.2-0.3-0.1-0.9,0.2-1.1l1.8-1.1l-2-3.2c-0.2-0.3-0.1-0.9,0.2-1.1
						s0.9-0.1,1.1,0.2l2,3.2l2.7-1.7l-2-3.2c-0.2-0.3-0.1-0.9,0.2-1.1s0.9-0.1,1.1,0.2l2,3.2l1.8-1.1c0.3-0.2,0.9-0.1,1.1,0.2
						c0.2,0.3,0.1,0.9-0.2,1.1l-0.3,0.2l1.6,2.6c0.6,1,0.9,2.3,0.7,3.5c-0.1,0.4-0.5,0.7-0.9,0.6h-0.1c-0.4-0.1-0.7-0.5-0.6-0.9
						c0.1-0.8-0.1-1.7-0.5-2.4L51.8,77l-5.9,3.7l1.6,2.6c0.5,0.8,1.3,1.3,2.2,1.5c0.9,0.2,1.8,0.1,2.6-0.5c0.2-0.1,0.4-0.2,0.6-0.1
						c0.2,0.1,0.4,0.2,0.5,0.3l1.8,2.8c0.3,0.5,0.9,0.6,1.3,0.3l1.6-1c1.1-0.7,2.7-0.4,3.4,0.7c0.7,1.1,0.4,2.7-0.7,3.4l-1.6,1
						c-0.2,0.1-0.3,0.3-0.4,0.6c-0.1,0.2,0,0.5,0.1,0.7c0.1,0.1,0.1,0.2,0.1,0.3h1.3c0.6,0,1.1-0.1,1.6-0.4c1-0.5,1.7-1.6,1.7-2.8
						l0,0V69.8c0-0.2,0-0.5-0.1-0.6C63.3,68.4,63,67.9,62.6,67.5z"/>
				</g>
			</g>
			<path class="st3" d="M43.3,80.7l-6.8,9.6c0,0-0.1,3,3.2,3.2h17.6c0,0-0.7-1.4,0.9-2.8l1.8-1.1c0,0,0.8-0.5,0.3-1.3
				c0,0-0.6-0.9-1.3-0.3l-1.6,1c0,0-0.7,0.5-1.9,0.3c0,0-1-0.2-1.6-1.1L52.5,86c0,0-1.5,0.6-3.1,0.3c0,0-2-0.3-3.2-2.2l-1.6-2.6
				l-0.3,0.2c0,0-0.6,0.4-1-0.2C43.3,81.5,43.1,81,43.3,80.7z"/>
		</g>
		<g>
			<rect x="11.5" y="39" class="st2" width="15.3" height="22.6"/>
			<g>
				<g>
					<path class="st1" d="M30.5,36.6H9.8c-1.8,0-3.2,1.4-3.2,3.2v20.6c0,1.8,1.4,3.2,3.2,3.2h20.6c1.8,0,3.2-1.4,3.2-3.2V39.8
						C33.7,38,32.2,36.6,30.5,36.6z M24.2,59.1H16l1.8-8.8c-1.6-0.8-2.6-2.5-2.6-4.4c0-2.7,2.2-4.9,4.9-4.9s4.9,2.2,4.9,4.9
						c0,1.9-1.1,3.5-2.6,4.4L24.2,59.1z"/>
				</g>
				<path class="st3" d="M16,59.1l1.8-8.8c-2.1-0.9-2.5-3.2-2.5-3.2c-0.7-2.7,1.1-4.4,1.1-4.4l-9.8,8v9.7c0.2,3.3,3.2,3.2,3.2,3.2
					h1.7h8.1l4.6-4.4L16,59.1L16,59.1z"/>
			</g>
		</g>
	</g>
	<linearGradient id="SVGID_1_" gradientUnits="userSpaceOnUse" x1="50" y1="99.7423" x2="50" y2="93.299">
		<stop  offset="0" style="stop-color:#0E293D"/>
		<stop  offset="0.2914" style="stop-color:#112E45"/>
		<stop  offset="1" style="stop-color:#173956"/>
	</linearGradient>
	<rect y="93.3" class="st4" width="100" height="6.4"/>
</g>
</svg>
