<?xml version="1.0" encoding="utf-8"?>
<!-- Generator: Adobe Illustrator 22.1.0, SVG Export Plug-In . SVG Version: 6.00 Build 0)  -->
<svg version="1.1" id="Layer_1" xmlns="http://www.w3.org/2000/svg" xmlns:xlink="http://www.w3.org/1999/xlink" x="0px" y="0px"
	 viewBox="0 0 250 250" style="enable-background:new 0 0 250 250;" xml:space="preserve">
<style type="text/css">
	.st0{fill:#EF2700;}
	.st1{fill:#FFFFFF;}
	.st2{fill:#BA1600;}
</style>
<g>
	<g>
		<path class="st0" d="M146.6,153.5h-43.1c-3.8,0-6.7-2.9-6.7-6.7v-43.1c0-3.8,2.9-6.7,6.7-6.7h43.1c3.8,0,6.7,2.9,6.7,6.7v43.1
			C153.3,150.3,150.3,153.5,146.6,153.5z"/>
		<g>
			<path class="st1" d="M212.5,97.8c0,0,2.9,1.5,3.1,4.2l-25.7,47.9l-25.7-26.6L212.5,97.8z"/>
			<g>
				<path class="st1" d="M210.2,97c0.2,0,0.4,0.2,0.6,0.2C210.6,97.2,210.4,97.2,210.2,97z"/>
				<path class="st1" d="M209.1,97c0.2,0,0.6,0,0.8,0C209.6,97,209.4,97,209.1,97z"/>
				<path class="st1" d="M189.5,138.8l-3.6-3.6c3.8-4.4,5.9-8.6,2.9-11.5C193.2,128.3,193,134,189.5,138.8z"/>
				<path class="st1" d="M211,97.2c0.6,0.2,1,0.4,1.5,0.6C212.1,97.4,211.5,97.4,211,97.2z"/>
				<path class="st0" d="M215.8,102.8L215.8,102.8c0-0.4-0.2-0.6-0.2-1l-19.9,19.9l1,1l-2.7,2.7c2.5,5,1.5,11.3-2.3,15.5l0.6,0.6
					l-3.3,3.3l-20-20l3.3-3.3l0.6,0.6c4.2-4,10.7-4.8,15.5-2.3l2.7-2.7l1,1l20.5-20.5l0,0l0,0c-0.4-0.2-1-0.4-1.5-0.6h-0.4
					c-0.2,0-0.4-0.2-0.6-0.2c-0.2,0-0.2,0-0.2,0c-0.2,0-0.6,0-0.8,0l0,0l0,0h-43.3c-3.8,0-6.7,2.9-6.7,6.7v43.1
					c0,3.8,2.9,6.7,6.7,6.7h43.1l0,0c2.5,0,4.8-1.5,5.9-3.6c0.4-1,0.8-2.1,0.8-3.3v-42.7C215.8,103.4,215.8,103,215.8,102.8z"/>
				<path class="st0" d="M185.9,135.3l3.6,3.6c3.6-4.8,3.8-10.7-0.6-15.1C191.8,126.7,189.9,130.9,185.9,135.3z"/>
			</g>
		</g>
		<path class="st2" d="M215.6,102c0,0,0.2,1,0.2,1.9V147c0,0-0.4,6.7-6.7,6.7H198l-9-8.4l3.3-3.3l-0.6-0.6c0,0,6.7-6.5,2.3-15.5
			l2.7-2.7l-1-1L215.6,102z"/>
		<g>
			<path class="st1" d="M123.7,129.6h-4.2c2.5-2.5,4.6-4.6,4.6-7.3c0-2.3-1.5-4.6-4.6-4.6c-1.5,0-2.9,0.4-4.2,1.5
				c-0.2,0.2-0.4,0.6-0.2,0.8l0.6,1.3c0.2,0.2,0.2,0.4,0.4,0.4s0.4,0,0.6-0.2c0.4-0.4,1.3-1,2.3-1c1.3,0,1.9,0.6,1.9,1.9
				c0,1.7-1.5,3.3-4.6,6.3L115,130c-0.2,0.2-0.2,0.4-0.2,0.4v1c0,0.4,0.4,0.6,0.6,0.6h8.4c0.4,0,0.6-0.4,0.6-0.6V130
				C124.4,130,124,129.6,123.7,129.6z"/>
			<path class="st1" d="M134.8,126.3h-1v-7.5c0-0.4-0.4-0.6-0.6-0.6h-1.9c-0.2,0-0.4,0.2-0.6,0.4l-5.9,8.4c-0.2,0.2-0.2,0.2-0.2,0.4
				v1.3c0,0.4,0.4,0.6,0.6,0.6h5.4v2.9c0,0.4,0.4,0.6,0.6,0.6h1.7c0.4,0,0.6-0.4,0.6-0.6v-2.9h1c0.4,0,0.6-0.4,0.6-0.6v-1.5
				C135.5,126.5,135.3,126.3,134.8,126.3z M128.6,126.3l2.1-3.1v3.1H128.6z"/>
			<g>
				<path class="st1" d="M108,126c-0.4,0-0.8-0.4-0.8-0.8c0-9.8,8-17.8,17.8-17.8c0.4,0,0.8,0.4,0.8,0.8s-0.4,0.8-0.8,0.8
					c-9,0-16.1,7.1-16.1,16.1C108.9,125.6,108.5,126,108,126z"/>
				<path class="st1" d="M125.2,143c-0.4,0-0.8-0.4-0.8-0.8s0.4-0.8,0.8-0.8c9,0,16.1-7.1,16.1-16.1c0-0.4,0.4-0.8,0.8-0.8
					c0.4,0,0.8,0.4,0.8,0.8C142.8,135,134.8,143,125.2,143z"/>
			</g>
			<g>
				<path class="st1" d="M123.7,111.8c-0.4,0-0.6-0.2-0.8-0.4c-0.4-0.4-0.4-1.3,0-1.9l1.5-1.5l-1.5-1.3c-0.4-0.4-0.4-1.3,0-1.9
					c0.4-0.4,1.3-0.4,1.9,0l3.1,3.1l-3.1,3.1C124.2,111.8,124,111.8,123.7,111.8z"/>
				<path class="st1" d="M126.5,138.4c0.4,0,0.6,0.2,0.8,0.4c0.4,0.4,0.4,1.3,0,1.9l-1.5,1.5l1.5,1.5c0.4,0.4,0.4,1.3,0,1.9
					s-1.3,0.4-1.9,0l-2.9-3.8l3.1-3.1C125.8,138.6,126.3,138.4,126.5,138.4z"/>
			</g>
		</g>
		<path class="st0" d="M147.2,90.5h-43.1c-3.8,0-6.7-2.9-6.7-6.7V40.6c0-3.8,2.9-6.7,6.7-6.7h43.1c3.8,0,6.7,2.9,6.7,6.7v43.1
			C153.9,87.5,150.7,90.5,147.2,90.5z"/>
		<g>
			<path class="st1" d="M144,59.9l-4.4-4.6v-9.4c0-1.3-1-2.3-2.3-2.3h-1.9c-1.3,0-2.3,1-2.3,2.3v2.9l-3.3-3.3
				c-1-1.3-2.7-1.9-4.4-1.9c-1.5,0-3.1,0.6-4.4,1.9l-14.2,14.4c-2.3,2.3-0.6,5.9,2.1,5.9h2.3v11.1c0,1.9,1.5,3.6,3.6,3.6h21.1
				c1.9,0,3.6-1.5,3.6-3.6V65.8h2.3C144.7,65.8,146.6,62.4,144,59.9z M125.6,76.2c-4.8,0-8.6-3.8-8.6-8.6c0-2.7,1.3-5.2,3.3-6.7
				c0.4-0.4,0.6,0,0.6,0.2c-1.5,3.3-0.4,6.5,1.9,7.1c-0.6-1.7-1-3.6-0.8-5.4c0.4-2.7,1.7-5.2,3.8-6.9c0.2-0.2,0.4-0.2,0.4-0.2
				s0.2,0.2,0.2,0.4c-0.2,0.6-0.2,1-0.4,1.7c-0.4,2.3,0,4.4,1,6.3c1.7,0,2.3-1.9,2.5-3.3c0-0.4,0.2-0.4,0.6-0.2
				c2.1,1.5,3.6,4.2,3.6,6.9C134.2,72.5,130.4,76.2,125.6,76.2z"/>
		</g>
		<path class="st2" d="M145.1,61.2l8.6,10.7v11.7c0,0-0.4,6.7-6.7,6.7h-25.1L113.5,80h22.4c0,0,3.6,0.2,3.6-3.6V65.3h2.3
			C142.2,65.8,146.4,65.6,145.1,61.2z"/>
		<polygon class="st1" points="143.8,215.8 140.5,216.1 104.3,189.3 108,171.9 120.4,165.8 139.7,172.1 151.8,206.2 149.7,212.9 		
			"/>
		<g>
			<g>
				<g>
					<path class="st1" d="M149.7,160.4c0.6,0.4,1,0.6,1.5,1.3C150.7,161,150.3,160.6,149.7,160.4z"/>
					<path class="st1" d="M96.7,166.2L96.7,166.2c0-0.4,0-1,0.2-1.3C96.7,165.4,96.7,165.8,96.7,166.2z"/>
					<path class="st1" d="M98.8,161.6c0.4-0.4,1-0.8,1.5-1.3C99.7,160.6,99.3,161,98.8,161.6z"/>
					<path class="st1" d="M97,164.8c0.2-1.3,1-2.5,1.9-3.3C97.8,162.5,97.2,163.5,97,164.8z"/>
					<path class="st0" d="M151.4,161.6c-0.4-0.4-1-0.8-1.5-1.3c-1-0.4-2.1-0.8-3.3-0.8h-42.9c-1.3,0-2.3,0.2-3.3,0.8
						c-0.6,0.4-1,0.6-1.5,1.3c-1,1-1.5,2.1-1.9,3.3c-0.2,0.4-0.2,0.8-0.2,1.3v43.1l0,0c0,2.5,1.5,4.8,3.6,5.9c1,0.4,2.1,0.8,3.3,0.8
						h36.8c-0.2-0.8-0.4-1.9-0.2-2.7c0.4-1.3,1-2.5,2.3-3.3l3.3-2.1c1-0.6,1.3-1.9,0.6-2.7c-0.6-0.8-1.7-1.3-2.7-0.6l-3.3,2.1
						c-1.3,0.6-2.7,1-4,0.6s-2.5-1-3.3-2.3l-2.9-4.6c-2.1,0.8-4.2,1-6.5,0.6c-2.7-0.6-5-2.3-6.7-4.6l-3.3-5.4l-0.6,0.4
						c-0.4,0.2-0.8,0.4-1.3,0.2c-0.4-0.2-0.6-0.4-1-0.6c-0.4-0.6-0.2-1.9,0.4-2.3l3.8-2.3l-4.2-6.7c-0.4-0.6-0.2-1.9,0.4-2.3
						c0.6-0.4,1.9-0.2,2.3,0.4l4.2,6.7l5.7-3.6l-4.2-6.7c-0.4-0.6-0.2-1.9,0.4-2.3c0.6-0.4,1.9-0.2,2.3,0.4l4.2,6.7l3.8-2.3
						c0.6-0.4,1.9-0.2,2.3,0.4c0.4,0.6,0.2,1.9-0.4,2.3l-0.6,0.4l3.3,5.4c1.3,2.1,1.9,4.8,1.5,7.3c-0.2,0.8-1,1.5-1.9,1.3H134
						c-0.8-0.2-1.5-1-1.3-1.9c0.2-1.7-0.2-3.6-1-5l-2.7-5.4l-12.4,7.7l3.3,5.4c1,1.7,2.7,2.7,4.6,3.1c1.9,0.4,3.8,0.2,5.4-1
						c0.4-0.2,0.8-0.4,1.3-0.2c0.4,0.2,0.8,0.4,1,0.6l3.8,5.9c0.6,1,1.9,1.3,2.7,0.6l3.3-2.1c2.3-1.5,5.7-0.8,7.1,1.5
						c1.5,2.3,0.8,5.7-1.5,7.1l-3.3,2.1c-0.4,0.2-0.6,0.6-0.8,1.3c-0.2,0.4,0,1,0.2,1.5c0.2,0.2,0.2,0.4,0.2,0.6h2.7
						c1.3,0,2.3-0.2,3.3-0.8c2.1-1,3.6-3.3,3.6-5.9l0,0v-42.5c0-0.4,0-1-0.2-1.3C152.8,163.5,152.2,162.5,151.4,161.6z"/>
				</g>
			</g>
			<path class="st2" d="M111,189.3l-14.2,20.1c0,0-0.2,6.3,6.7,6.7h36.8c0,0-1.5-2.9,1.9-5.9l3.8-2.3c0,0,1.7-1,0.6-2.7
				c0,0-1.3-1.9-2.7-0.6l-3.3,2.1c0,0-1.5,1-4,0.6c0,0-2.1-0.4-3.3-2.3l-2.9-4.6c0,0-3.1,1.3-6.5,0.6c0,0-4.2-0.6-6.7-4.6l-3.3-5.4
				l-0.6,0.4c0,0-1.3,0.8-2.1-0.4C111,190.9,110.6,189.9,111,189.3z"/>
		</g>
		<g>
			<rect x="44.4" y="102" class="st1" width="32" height="47.3"/>
			<g>
				<g>
					<path class="st0" d="M84.2,97H40.9c-3.8,0-6.7,2.9-6.7,6.7v43.1c0,3.8,2.9,6.7,6.7,6.7H84c3.8,0,6.7-2.9,6.7-6.7v-43.1
						C90.9,99.9,87.7,97,84.2,97z M71,144H53.8l3.8-18.4c-3.3-1.7-5.4-5.2-5.4-9.2c0-5.7,4.6-10.3,10.3-10.3s10.3,4.6,10.3,10.3
						c0,4-2.3,7.3-5.4,9.2L71,144z"/>
				</g>
				<path class="st2" d="M53.8,144l3.8-18.4c-4.4-1.9-5.2-6.7-5.2-6.7c-1.5-5.7,2.3-9.2,2.3-9.2l-20.5,16.7v20.3
					c0.4,6.9,6.7,6.7,6.7,6.7h3.6h17l9.6-9.2L53.8,144L53.8,144z"/>
			</g>
		</g>
	</g>
</g>
</svg>
